<svg xmlns="http://www.w3.org/2000/svg" viewBox="0 0 512 512" style="enable-background:new 0 0 512 512" xml:space="preserve"><style>.st0,.st1,.st4{fill:#7585f0;stroke:#000;stroke-width:20;stroke-linecap:round;stroke-linejoin:round;stroke-miterlimit:10}.st1,.st4{fill:none}.st4{fill:#de5a5a}</style><g id="ICON_1_"><path class="st0" d="M479 493.1c1-4.5 1.5-9.2 1.5-14 0-35.1-28.4-63.5-63.5-63.5-30.2 0-55.6 21.1-62 49.4-11.5-11.8-27.6-19.1-45.4-19.1-22.6 0-42.4 11.8-53.7 29.5-11.3-17.7-31.1-29.5-53.7-29.5-17.8 0-33.9 7.3-45.4 19.1-6.4-28.3-31.7-49.4-62-49.4-35.1 0-63.5 28.4-63.5 63.5 0 4.8.5 9.5 1.5 14"/><path class="st1" d="M297.6 501.9H502M10 501.9h167.7"/><g><path d="M320.8 81.6c17.9 30.6 26.2 61.7 25.5 96.5-.7 40.7-16.3 91.3-29.4 130.9H196.6c-13.1-39.6-28.9-90.3-29.4-130.9-.7-34.8 7.6-65.9 25.5-96.5" style="fill:#fff"/><path class="st1" d="M320.8 81.6c17.9 30.6 26.2 61.7 25.5 96.5-.7 40.7-16.3 91.3-29.4 130.9H196.6c-13.1-39.6-28.9-90.3-29.4-130.9-.7-34.8 7.6-65.9 25.5-96.5"/><path d="M256.8 309h-60.3 0s0 0 0 0c3.7 11.3 7.5 22.4 11 33 1.3 4.1 5.1 6.8 9.4 6.9h79.5c4.4-.1 8.2-2.8 9.4-6.9 3.5-10.6 7.3-21.7 11-33h-60z" style="fill:#e4b75c;stroke:#000;stroke-width:20;stroke-linecap:round;stroke-linejoin:round;stroke-miterlimit:10"/><path class="st4" d="M218.7 348.8c-3 4.7-4.7 10.1-4.7 15.8 0 37.2 42 54.6 42 54.6s42-17.4 42-54.6c0-5.7-1.7-11-4.7-15.8h-74.6z"/><path class="st0" d="M196.5 309s0 0 0 0c-8.4-25.5-18-55.6-23.9-84.7l-5.2-.8-10 10c-50 50-3.5 128.1-3.4 130.8.8 2.3 29.5-28.4 45.6-45.9-1-3.1-2.1-6.3-3.1-9.4zM354.7 233.5l-13.2-13.2c-5.8 30.3-15.8 62-24.6 88.7h0c-1.1 3.4-2.2 6.7-3.3 10 15.5 18.4 42.8 50.4 44.5 45.3.1-2.7 46.3-81.1-3.4-130.8z"/><path class="st4" d="M320.8 81.6c-1.1 1.1-4.5 4.2-5.6 5.4-16.5 15.9-37.3 23.8-58.5 23.8s-42-7.9-58.5-23.8c-1.1-1.1-4.5-4.2-5.6-5.4 14.8-25.2 35.9-48.9 57.3-68.6 1.8-1.8 4.2-2.8 6.8-2.8 2.5 0 4.9 1 6.8 2.8 21.4 19.7 42.3 43.5 57.3 68.6z"/><circle cx="256.7" cy="188.5" r="43.4" style="fill:#d4f4ff"/><path class="st1" d="M256.7 145.1c24 0 43.4 19.4 43.4 43.4s-19.4 43.4-43.4 43.4-43.4-19.4-43.4-43.4"/></g></g></svg>